<svg width="600" height="600" viewBox="0 0 600 600" fill="none" xmlns="http://www.w3.org/2000/svg">
<rect width="600" height="600" rx="133" fill="url(#paint0_linear_1562_13662)"/>
<g clip-path="url(#clip0_1562_13662)">
<path d="M300.708 100.008C301.834 155.26 304.256 210.513 307.471 265.764C311.704 338.532 342.735 411.305 364.388 484.074C364.867 485.683 365.318 487.299 365.788 488.908C345.183 496.083 323.05 500 300 500C276.954 500 254.823 496.089 234.22 488.916C234.691 487.304 235.148 485.686 235.628 484.074C257.281 411.305 288.313 338.532 292.545 265.764C295.76 210.513 298.175 155.26 299.3 100.008C299.534 100.007 299.766 100 300 100C300.236 100 300.472 100.007 300.708 100.008Z" fill="white"/>
<path d="M288.42 293.058C276.945 356.043 242.277 419.032 217.016 482.015C209.569 478.614 202.366 474.771 195.443 470.516C230.086 411.365 274.475 352.21 288.42 293.058Z" fill="white"/>
<path d="M311.588 293.058C325.532 352.205 369.907 411.362 404.549 470.508C397.627 474.761 390.429 478.606 382.984 482.007C357.723 419.027 323.063 356.038 311.588 293.058Z" fill="white"/>
<path d="M287.329 100.407C287.248 155.865 287.183 211.323 286.946 266.781C286.685 327.809 222.795 388.857 167.603 449.886C126.149 413.242 100 359.679 100 300C100 193.799 182.776 106.944 287.329 100.407Z" fill="white"/>
<path d="M312.671 100.407C417.224 106.944 500 193.799 500 300C500 359.681 473.845 413.241 432.389 449.886C377.199 388.861 313.323 327.805 313.062 266.781C312.825 211.323 312.752 155.865 312.671 100.407Z" fill="white"/>
</g>
<defs>
<linearGradient id="paint0_linear_1562_13662" x1="187.5" y1="-4.47035e-06" x2="412.5" y2="600" gradientUnits="userSpaceOnUse">
<stop stop-color="#56CCF2"/>
<stop offset="1" stop-color="#2F80ED"/>
</linearGradient>
<clipPath id="clip0_1562_13662">
<rect width="400" height="400" fill="white" transform="translate(100 100)"/>
</clipPath>
</defs>
</svg>
